<svg xmlns="http://www.w3.org/2000/svg" xmlns:xlink="http://www.w3.org/1999/xlink" width="2000" zoomAndPan="magnify" viewBox="0 0 1500 1499.999933" height="2000" preserveAspectRatio="xMidYMid meet" version="1.0"><path fill="#fffef9" d="M 700.476562 107.945312 C 674.597656 109.757812 615.28125 118.703125 612.832031 121.042969 C 612.617188 121.363281 616.664062 124.347656 621.882812 127.753906 L 631.253906 134.035156 L 641.371094 132.226562 C 653.40625 129.992188 682.585938 126.371094 700.476562 124.984375 C 770.65625 119.234375 846.480469 126.050781 912.398438 144.046875 C 1050.519531 181.851562 1167.664062 261.722656 1253.816406 376.734375 C 1297.054688 434.457031 1333.15625 507.402344 1352.75 576.410156 C 1354.027344 580.777344 1355.304688 585.25 1355.625 586.316406 C 1356.15625 588.230469 1355.625 588.339844 1346.679688 587.59375 C 1341.566406 587.0625 1315.476562 586.421875 1288.746094 586.101562 L 1240.1875 585.464844 L 1248.597656 573.75 C 1257.757812 560.96875 1258.183594 559.160156 1253.605469 553.089844 C 1248.703125 546.378906 1243.59375 546.914062 1239.015625 554.578125 C 1229.75 570.234375 1218.886719 585.464844 1216.4375 586.101562 C 1214.945312 586.527344 1209.726562 586.847656 1204.722656 586.953125 C 1176.609375 587.273438 1102.703125 594.621094 1079.914062 599.414062 C 1077.25 599.945312 1076.929688 599.734375 1076.929688 597.285156 C 1076.929688 591.320312 1072.777344 587.0625 1066.921875 587.0625 C 1063.621094 587.0625 1056.378906 591.851562 1046.367188 600.691406 C 1040.402344 605.910156 1036.464844 608.574219 1033.160156 609.425781 C 1007.921875 616.132812 981.832031 627.316406 973.101562 635.300781 C 968.308594 639.667969 967.773438 640.414062 967.882812 644.566406 C 968.09375 651.0625 971.078125 654.578125 976.828125 655.003906 C 981.9375 655.429688 984.070312 653.9375 990.246094 645.417969 C 994.078125 640.308594 1001.109375 635.621094 1011.222656 631.679688 L 1016.65625 629.550781 L 1014.632812 631.894531 C 1013.460938 633.277344 1007.921875 639.457031 1002.386719 645.632812 C 952.972656 700.582031 903.984375 763.519531 867.246094 819.109375 C 852.230469 841.898438 851.804688 843.496094 858.511719 850.207031 C 863.835938 855.53125 867.566406 855.742188 870.121094 850.953125 C 873.742188 844.136719 889.503906 821.132812 896.105469 813.144531 C 904.945312 802.175781 916.871094 789.503906 917.617188 790.25 C 917.9375 790.570312 918.253906 792.699219 918.253906 795.042969 C 918.253906 800.472656 921.023438 810.910156 924.21875 817.617188 C 928.796875 827.417969 938.597656 835.085938 946.476562 835.191406 C 954.464844 835.191406 972.460938 828.269531 986.410156 819.640625 L 991.097656 816.660156 L 983.75 826.246094 C 973.101562 840.089844 963.515625 854.679688 958.402344 864.902344 C 954.039062 873.742188 953.929688 874.0625 953.929688 885.136719 C 953.929688 895.253906 954.144531 896.742188 956.378906 899.832031 C 959.253906 903.984375 965.21875 905.902344 970.222656 904.519531 C 998.339844 896.425781 1059.679688 828.90625 1158.613281 697.175781 L 1177.886719 671.617188 L 1193.648438 663.523438 C 1209.410156 655.429688 1224.210938 649.144531 1238.054688 644.671875 C 1241.996094 643.289062 1245.191406 641.796875 1245.191406 641.265625 C 1245.191406 639.5625 1229.75 640.199219 1221.550781 642.332031 C 1217.078125 643.503906 1209.941406 645.953125 1205.683594 647.761719 C 1201.316406 649.679688 1196.203125 651.914062 1194.179688 652.765625 L 1190.558594 654.257812 L 1193.96875 649.679688 C 1195.882812 647.121094 1204.9375 634.664062 1214.09375 621.882812 L 1230.8125 598.773438 L 1257.4375 598.773438 C 1286.828125 598.773438 1347.425781 600.691406 1354.878906 601.863281 L 1359.671875 602.503906 L 1361.480469 609.957031 C 1362.441406 614.109375 1363.292969 618.371094 1363.292969 619.648438 C 1363.398438 622.097656 1368.828125 621.457031 1309.085938 626.996094 C 1281.292969 629.550781 1273.945312 630.828125 1273.945312 632.960938 C 1273.945312 636.472656 1292.898438 636.898438 1331.449219 634.449219 C 1344.65625 633.597656 1357.859375 632.851562 1360.84375 632.851562 L 1366.273438 632.851562 L 1368.511719 646.378906 C 1391.40625 781.199219 1367.871094 925.285156 1303.230469 1045.300781 C 1213.667969 1211.539062 1054.566406 1329.640625 872.464844 1364.996094 C 826.351562 1373.941406 790.464844 1377.136719 742.542969 1376.605469 C 711.765625 1376.285156 697.601562 1375.324219 669.59375 1371.8125 C 496.96875 1350.191406 339.355469 1255.199219 237.550781 1111.542969 C 196.335938 1053.289062 164.386719 985.878906 145.644531 917.722656 C 144.046875 911.867188 142.023438 904.625 141.171875 901.535156 C 139.789062 896.53125 139.042969 895.679688 132.015625 890.78125 C 122.214844 884.070312 119.449219 882.582031 120.085938 884.390625 C 120.300781 885.136719 122.214844 892.910156 124.347656 901.75 C 135.742188 949.136719 150.542969 989.820312 173.332031 1035.929688 C 242.765625 1176.609375 362.679688 1287.789062 508.46875 1346.890625 C 571.300781 1372.238281 634.984375 1387.039062 704.097656 1392.257812 C 726.671875 1393.960938 795.46875 1392.898438 816.023438 1390.660156 C 951.054688 1375.433594 1067.664062 1325.0625 1170.644531 1237.308594 C 1198.121094 1213.882812 1234.648438 1175.332031 1258.609375 1144.554688 C 1321.652344 1063.40625 1364.675781 967.667969 1383.101562 867.671875 C 1390.980469 824.96875 1393.644531 790.039062 1392.898438 739.132812 C 1392.363281 698.878906 1391.195312 683.757812 1386.292969 651.59375 C 1384.804688 642.222656 1383.632812 633.8125 1383.632812 632.851562 C 1383.632812 631.363281 1387.679688 630.828125 1413.984375 628.699219 C 1453.066406 625.503906 1467.335938 623.90625 1469.359375 622.203125 C 1470.53125 621.246094 1470.957031 618.796875 1470.957031 612.9375 C 1470.957031 600.054688 1471.277344 600.265625 1433.152344 595.046875 C 1422.609375 593.664062 1405.144531 591.746094 1394.28125 590.789062 C 1383.417969 589.828125 1374.261719 588.65625 1373.835938 588.339844 C 1373.515625 587.914062 1372.132812 583.757812 1370.851562 579.074219 C 1360.308594 540.417969 1343.484375 496.859375 1324.421875 459.269531 C 1268.726562 348.941406 1181.292969 256.292969 1073.203125 193.035156 C 1065.003906 188.242188 1047.324219 178.871094 1033.800781 172.269531 C 958.828125 135.207031 881.089844 114.015625 796.851562 107.839844 C 780.027344 106.5625 718.898438 106.667969 700.476562 107.945312 Z M 1203.976562 606.976562 C 1158.183594 672.042969 1157.441406 673.105469 1147.535156 679.070312 C 1114.523438 699.410156 1071.710938 733.597656 1037.742188 766.609375 C 1035.078125 769.164062 1032.417969 770.867188 1031.566406 770.550781 C 1030.710938 770.230469 1026.558594 773.105469 1021.875 777.363281 C 994.71875 801.433594 963.726562 819.214844 949.03125 819.214844 C 945.410156 819.214844 944.027344 818.578125 941.152344 815.597656 C 935.402344 809.417969 932.101562 791.953125 935.613281 785.136719 C 937.316406 781.835938 939.023438 780.984375 957.125 774.488281 C 996.316406 760.324219 1036.464844 735.085938 1036.464844 724.542969 C 1036.464844 719.433594 1033.375 712.9375 1029.648438 710.273438 C 1023.363281 705.800781 1007.390625 708.570312 990.777344 716.875 C 972.992188 725.929688 945.945312 745.203125 929.542969 760.539062 C 926.667969 763.199219 924.539062 764.90625 924.75 764.160156 C 925.285156 762.5625 943.8125 738.921875 956.914062 723.160156 C 963.195312 715.597656 973.527344 705.480469 987.371094 693.339844 C 1010.796875 672.574219 1045.515625 638.921875 1058.1875 624.546875 L 1066.707031 614.960938 L 1075.757812 613.257812 C 1098.867188 609.105469 1139.65625 604.207031 1170.113281 601.96875 C 1178.953125 601.332031 1187.789062 600.691406 1189.8125 600.480469 C 1191.835938 600.371094 1197.054688 600.054688 1201.316406 600.054688 L 1209.089844 599.839844 Z M 1411.425781 605.695312 C 1418.882812 606.550781 1426.230469 607.71875 1427.933594 608.359375 C 1430.808594 609.53125 1430.914062 609.636719 1429.105469 611.023438 C 1426.230469 613.046875 1392.578125 619.007812 1383.632812 619.007812 C 1380.757812 619.007812 1380.542969 618.6875 1378.945312 611.660156 C 1377.988281 607.507812 1377.242188 603.886719 1377.242188 603.566406 C 1377.242188 602.714844 1393.324219 603.78125 1411.425781 605.695312 Z M 1118.144531 721.457031 C 1045.089844 811.867188 989.285156 873.527344 980.765625 873.527344 C 977.679688 873.527344 978.53125 866.820312 982.578125 858.832031 C 998.65625 827.097656 1082.46875 737.855469 1125.386719 706.972656 C 1130.710938 703.136719 1135.078125 700.050781 1135.289062 699.945312 C 1135.503906 699.945312 1127.726562 709.632812 1118.144531 721.457031 Z M 1012.820312 725.714844 C 1013.671875 730.1875 995.78125 743.925781 977.464844 752.550781 C 967.347656 757.449219 943.8125 766.394531 943.175781 765.648438 C 941.898438 764.371094 971.714844 742.328125 986.519531 733.597656 C 1002.066406 724.4375 1011.96875 721.457031 1012.820312 725.714844 Z M 1012.820312 725.714844 " fill-opacity="1" fill-rule="nonzero"/><path fill="#fffef9" d="M 538.394531 123.066406 C 535.835938 123.601562 533.8125 124.664062 533.8125 125.304688 C 533.8125 127.113281 543.183594 160.234375 543.929688 160.875 C 544.996094 162.042969 559.054688 156.828125 561.929688 154.164062 C 563.953125 152.355469 564.695312 150.542969 564.695312 147.773438 C 564.695312 142.664062 563.3125 140.320312 559.480469 138.722656 C 556.816406 137.65625 556.390625 137.125 557.242188 135.527344 C 558.945312 132.332031 558.414062 127.433594 556.070312 124.453125 C 554.152344 122.109375 553.195312 121.683594 548.402344 121.789062 C 545.316406 121.898438 540.84375 122.429688 538.394531 123.066406 Z M 551.386719 129.5625 C 553.621094 132.972656 552.128906 135.953125 547.550781 137.550781 C 545.632812 138.191406 544.039062 138.722656 543.824219 138.722656 C 543.398438 138.722656 541.269531 131.054688 541.269531 129.457031 C 541.269531 128.285156 543.609375 127.539062 547.871094 127.113281 C 548.9375 127.113281 550.535156 128.179688 551.386719 129.5625 Z M 558.09375 147.027344 C 558.414062 150.542969 556.921875 151.929688 550.851562 153.632812 C 547.976562 154.484375 547.765625 154.269531 546.59375 149.691406 C 545.953125 147.027344 545.632812 144.578125 545.953125 144.367188 C 547.125 143.195312 553.621094 142.34375 555.644531 142.984375 C 557.03125 143.515625 557.882812 144.898438 558.09375 147.027344 Z M 558.09375 147.027344 " fill-opacity="1" fill-rule="nonzero"/><path fill="#fffef9" d="M 487.59375 150.117188 C 487.277344 156.292969 486.957031 165.984375 486.957031 171.523438 C 486.957031 180.253906 487.167969 181.425781 488.660156 180.894531 C 489.617188 180.574219 490.789062 180.253906 491.324219 180.253906 C 491.855469 180.253906 492.28125 178.019531 492.28125 175.144531 L 492.28125 170.136719 L 498.777344 167.582031 L 505.273438 165.132812 L 508.894531 168.648438 C 512.089844 171.734375 512.726562 171.949219 515.285156 170.882812 L 518.054688 169.605469 L 503.996094 154.695312 C 496.222656 146.390625 489.511719 139.46875 489.085938 139.253906 C 488.660156 139.042969 488.023438 143.835938 487.59375 150.117188 Z M 497.285156 155.976562 C 499.203125 157.890625 500.800781 159.703125 500.800781 160.234375 C 500.800781 160.875 494.089844 164.28125 492.707031 164.28125 C 492.496094 164.28125 492.28125 161.617188 492.28125 158.425781 C 492.28125 155.230469 492.601562 152.566406 493.027344 152.566406 C 493.453125 152.566406 495.371094 154.058594 497.285156 155.976562 Z M 497.285156 155.976562 " fill-opacity="1" fill-rule="nonzero"/><path fill="#fffef9" d="M 427.640625 167.6875 C 425.402344 168.753906 425.402344 169.074219 433.816406 185.6875 C 438.394531 195.058594 442.441406 202.617188 442.761719 202.617188 C 444.253906 202.617188 464.59375 191.863281 464.59375 191.117188 C 464.59375 190.585938 463.953125 189.414062 463.207031 188.347656 C 461.824219 186.539062 461.398438 186.644531 454.15625 190.265625 C 450.003906 192.394531 446.167969 194.097656 445.636719 194.097656 C 445.210938 194.097656 441.695312 187.816406 437.96875 180.253906 C 434.242188 172.585938 430.835938 166.410156 430.515625 166.519531 C 430.195312 166.519531 428.917969 167.050781 427.640625 167.6875 Z M 427.640625 167.6875 " fill-opacity="1" fill-rule="nonzero"/><path fill="#fffef9" d="M 359.378906 208.15625 C 357.460938 210.074219 357.671875 210.710938 362.359375 216.996094 L 366.617188 222.746094 L 359.484375 228.070312 C 355.4375 231.050781 351.921875 233.394531 351.601562 233.503906 C 351.285156 233.503906 348.941406 230.625 346.386719 227.21875 C 341.914062 221.042969 341.804688 220.9375 339.355469 222.53125 L 336.800781 224.128906 L 341.914062 231.265625 C 355.542969 250.539062 358.632812 254.800781 359.269531 254.800781 C 359.589844 254.800781 360.761719 254.160156 361.933594 253.308594 C 363.851562 251.820312 363.851562 251.5 359.378906 245.214844 C 356.820312 241.59375 354.90625 238.402344 355.222656 238.1875 C 356.503906 236.910156 369.28125 228.175781 369.8125 228.175781 C 370.132812 228.175781 372.476562 231.050781 375.03125 234.671875 L 379.609375 241.167969 L 381.847656 238.933594 L 384.082031 236.804688 L 380.464844 231.691406 C 370.238281 217.421875 362.253906 206.878906 361.507812 206.878906 C 361.082031 206.878906 360.121094 207.410156 359.378906 208.15625 Z M 359.378906 208.15625 " fill-opacity="1" fill-rule="nonzero"/><path fill="#fffef9" d="M 302.511719 252.351562 C 294.84375 259.167969 293.457031 260.871094 294.308594 262.46875 C 295.695312 265.128906 297.609375 264.917969 300.59375 261.722656 C 301.976562 260.230469 303.363281 259.058594 303.789062 259.058594 C 304.214844 259.058594 309.007812 264.277344 314.542969 270.773438 C 320.082031 277.164062 325.085938 282.488281 325.726562 282.488281 C 327.003906 282.488281 329.347656 280.359375 329.347656 279.082031 C 329.347656 278.65625 327.109375 275.671875 324.339844 272.585938 C 321.464844 269.496094 316.886719 264.171875 313.90625 260.765625 L 308.6875 254.585938 L 312.199219 251.710938 C 315.503906 249.050781 315.609375 248.625 314.332031 246.496094 C 313.480469 245.214844 312.625 244.152344 312.308594 244.152344 C 311.988281 244.257812 307.621094 247.878906 302.511719 252.351562 Z M 302.511719 252.351562 " fill-opacity="1" fill-rule="nonzero"/><path fill="#fffef9" d="M 257.355469 296.441406 C 255.546875 298.464844 255.652344 298.675781 263.425781 306.554688 C 267.792969 311.03125 273.96875 316.886719 277.164062 319.65625 L 283.023438 324.765625 L 291.433594 315.820312 L 299.847656 306.875 L 297.71875 304.746094 L 295.585938 302.617188 L 289.199219 309.644531 L 282.914062 316.671875 L 271.09375 305.492188 C 259.488281 294.417969 259.273438 294.308594 257.355469 296.441406 Z M 257.355469 296.441406 " fill-opacity="1" fill-rule="nonzero"/><path fill="#fffef9" d="M 223.917969 334.246094 C 223.917969 335.308594 243.511719 370.878906 244.152344 370.878906 C 244.472656 370.878906 245.324219 369.921875 246.066406 368.75 C 247.132812 366.9375 247.027344 365.875 245.214844 362.359375 L 242.980469 357.992188 L 247.027344 352.988281 C 249.15625 350.21875 251.074219 347.875 251.179688 347.664062 C 251.285156 347.449219 253.417969 347.875 255.867188 348.621094 C 259.914062 349.792969 260.445312 349.792969 262.46875 347.664062 C 263.746094 346.386719 264.597656 345.214844 264.277344 344.894531 C 263.746094 344.46875 225.835938 333.605469 224.664062 333.605469 C 224.238281 333.605469 223.917969 333.925781 223.917969 334.246094 Z M 240.210938 343.828125 C 242.980469 344.789062 245.214844 345.746094 245.214844 346.066406 C 245.214844 347.554688 240.636719 352.667969 239.785156 352.136719 C 238.828125 351.601562 234.566406 343.828125 234.566406 342.65625 C 234.566406 341.914062 234.671875 341.914062 240.210938 343.828125 Z M 240.210938 343.828125 " fill-opacity="1" fill-rule="nonzero"/><path fill="#fffef9" d="M 190.691406 381.421875 C 187.285156 386.640625 184.515625 391.433594 184.515625 391.964844 C 184.515625 393.03125 213.695312 412.410156 215.292969 412.410156 C 215.824219 412.410156 219.125 407.832031 222.746094 402.1875 C 227.964844 394.09375 229.03125 391.644531 228.070312 390.472656 C 225.835938 387.703125 224.128906 388.984375 219.125 396.96875 L 214.121094 404.957031 L 210.925781 403.144531 C 205.496094 399.84375 205.386719 399.3125 209.96875 392.070312 C 213.160156 387.066406 213.90625 385.042969 213.054688 383.976562 C 211.03125 381.421875 209.328125 382.488281 205.175781 388.984375 C 202.832031 392.496094 200.59375 395.371094 200.0625 395.371094 C 199 395.371094 191.96875 391.113281 191.96875 390.472656 C 191.96875 390.152344 194.097656 386.746094 196.761719 382.804688 C 201.980469 375.03125 202.40625 373.542969 199.851562 372.582031 C 197.082031 371.519531 196.976562 371.625 190.691406 381.421875 Z M 190.691406 381.421875 " fill-opacity="1" fill-rule="nonzero"/><path fill="#fffef9" d="M 165.558594 423.378906 C 162.898438 426.894531 163.214844 427.320312 170.136719 430.726562 C 173.972656 432.644531 177.058594 434.5625 177.058594 434.988281 C 177.058594 437.117188 169.394531 450.75 168.222656 450.75 C 167.582031 450.75 164.28125 449.257812 161.085938 447.449219 C 155.65625 444.464844 155.121094 444.359375 153.953125 446.167969 C 153.207031 447.128906 152.566406 448.300781 152.566406 448.726562 C 152.566406 449.472656 180.253906 464.488281 184.621094 466.191406 C 185.6875 466.617188 186.644531 465.976562 187.390625 464.273438 C 188.457031 461.929688 188.136719 461.609375 181.746094 458.097656 C 178.019531 456.179688 174.929688 454.15625 174.929688 453.625 C 174.929688 452.238281 182.386719 437.96875 183.128906 437.96875 C 183.554688 437.96875 186.964844 439.566406 190.585938 441.378906 C 196.335938 444.359375 197.507812 444.679688 198.359375 443.292969 C 199 442.441406 199.316406 441.058594 199.105469 440.3125 C 199 439.566406 191.648438 435.199219 182.703125 430.515625 C 170.992188 424.445312 166.304688 422.527344 165.558594 423.378906 Z M 165.558594 423.378906 " fill-opacity="1" fill-rule="nonzero"/><path fill="#fffef9" d="M 505.59375 510.917969 C 475.136719 517.734375 400.164062 563.097656 324.023438 620.925781 C 291.433594 645.632812 263.425781 669.59375 255.652344 679.496094 C 252.457031 683.4375 251.820312 685.035156 252.351562 687.695312 C 253.734375 695.046875 260.65625 698.027344 264.597656 693.023438 C 267.367188 689.507812 297.71875 663.84375 316.671875 649.144531 C 325.085938 642.542969 339.25 631.46875 348.195312 624.441406 C 417.523438 570.234375 502.609375 519.648438 511.875 527.316406 C 512.835938 528.167969 513.582031 529.660156 513.582031 530.832031 C 513.582031 539.457031 486.742188 575.027344 405.59375 673.851562 C 296.757812 806.4375 261.082031 854.144531 261.191406 867.136719 C 261.296875 873.953125 268.75 883.113281 274.289062 883.113281 C 276.84375 883.113281 291.007812 873.207031 308.472656 859.152344 C 330.410156 841.582031 331.371094 840.726562 339.039062 834.230469 C 345.535156 828.800781 352.882812 822.625 400.164062 783.328125 C 466.296875 728.269531 509.320312 694.085938 558.308594 657.664062 C 579.074219 642.222656 611.660156 619.859375 609.851562 622.203125 C 609.210938 623.054688 587.378906 650.425781 561.394531 682.90625 C 514.113281 741.902344 492.8125 769.484375 476.519531 792.59375 C 456.285156 821.453125 439.035156 852.121094 439.035156 859.046875 C 439.035156 864.902344 441.269531 867.566406 446.703125 868.523438 C 451.386719 869.375 451.921875 869.269531 458.417969 864.902344 C 470.984375 856.382812 493.984375 838.703125 543.929688 799.195312 C 605.378906 750.527344 680.03125 697.707031 726.035156 670.339844 C 747.546875 657.558594 775.234375 643.929688 789.398438 639.136719 C 797.917969 636.261719 801.113281 635.726562 809.632812 635.726562 C 815.167969 635.726562 820.707031 635.835938 821.878906 636.152344 C 823.6875 636.472656 824.007812 635.941406 824.328125 632.105469 C 827.308594 591.425781 736.789062 633.492188 594.515625 739.238281 C 565.867188 760.433594 506.125 807.609375 481.097656 828.800781 C 475.882812 833.273438 470.875 837.320312 470.128906 837.746094 C 465.339844 840.621094 484.613281 812.507812 538.5 737.75 C 560.117188 707.824219 573.109375 691.53125 627.316406 625.71875 C 647.441406 601.332031 648.71875 599.308594 646.695312 594.515625 C 645.101562 590.574219 639.988281 587.0625 636.046875 587.0625 C 627.632812 587.0625 569.167969 627.632812 504.316406 678.539062 C 492.175781 688.121094 382.167969 776.617188 366.617188 789.398438 C 362.679688 792.59375 348.726562 803.882812 335.734375 814.425781 C 322.636719 824.96875 306.664062 837.960938 300.167969 843.285156 C 293.671875 848.714844 288.132812 852.867188 287.921875 852.65625 C 287.496094 852.230469 306.34375 827.523438 333.394531 793.125 C 360.761719 758.410156 380.675781 733.597656 429.023438 674.277344 C 499.949219 586.953125 525.933594 552.558594 530.191406 540.203125 C 531.578125 536.371094 530.9375 526.890625 528.914062 521.566406 C 527.53125 517.839844 523.164062 512.515625 519.96875 510.917969 C 516.347656 509 514.21875 509 505.59375 510.917969 Z M 505.59375 510.917969 " fill-opacity="1" fill-rule="nonzero"/><path fill="#fffef9" d="M 152.671875 532.960938 C 151.394531 537.222656 150.117188 541.269531 149.90625 542.015625 C 149.691406 542.757812 144.578125 541.585938 134.464844 538.285156 C 121.789062 534.238281 119.234375 533.601562 118.382812 534.984375 C 117.851562 535.835938 117.425781 537.007812 117.425781 537.753906 C 117.425781 538.710938 152.566406 551.386719 153.097656 550.535156 C 153.207031 550.425781 155.015625 545.101562 157.144531 538.820312 L 160.980469 527.316406 L 158.316406 526.359375 C 156.828125 525.71875 155.546875 525.292969 155.335938 525.292969 C 155.230469 525.292969 154.058594 528.808594 152.671875 532.960938 Z M 152.671875 532.960938 " fill-opacity="1" fill-rule="nonzero"/><path fill="#fffef9" d="M 979.382812 569.277344 C 956.488281 586.207031 888.4375 670.230469 838.917969 742.542969 C 828.269531 758.195312 826.777344 759.898438 811.867188 773.851562 C 768.953125 814.105469 742.753906 835.191406 734.980469 835.511719 L 731.359375 835.722656 L 731.574219 830.71875 C 731.679688 824.859375 736.363281 815.597656 747.546875 798.449219 C 767.035156 768.632812 802.605469 726.671875 811.015625 723.480469 C 812.613281 722.839844 813.890625 721.5625 813.890625 720.601562 C 813.890625 718.152344 805.054688 709.527344 802.496094 709.527344 C 799.726562 709.527344 793.445312 714.425781 787.160156 721.347656 L 782.261719 726.78125 L 777.257812 721.988281 C 771.292969 716.128906 762.457031 712.511719 754.253906 712.402344 C 747.121094 712.402344 739.453125 715.917969 727.101562 725.183594 C 691.53125 751.699219 656.175781 796.960938 656.28125 815.703125 C 656.386719 823.6875 662.992188 833.0625 669.699219 834.765625 C 675.769531 836.363281 688.761719 828.160156 711.125 808.78125 C 719.75 801.324219 728.695312 793.550781 731.039062 791.527344 L 735.40625 787.800781 L 731.679688 793.65625 C 722.734375 807.714844 716.984375 821.664062 715.277344 833.378906 C 714.746094 837.535156 715.066406 839.34375 717.515625 844.347656 C 720.816406 851.058594 725.183594 854.359375 730.71875 854.359375 C 738.8125 854.359375 756.8125 841.582031 784.5 816.234375 L 800.898438 801.21875 L 794.402344 814 C 787.269531 828.269531 785.992188 834.339844 788.652344 840.835938 C 790.78125 845.839844 796.214844 849.246094 800.582031 848.394531 C 808.992188 846.691406 826.671875 832.847656 850.953125 809.207031 C 872.144531 788.441406 884.390625 772.253906 878.640625 772.359375 C 877.894531 772.464844 875.765625 773.742188 873.953125 775.339844 C 872.144531 776.9375 863.09375 784.925781 853.71875 793.125 C 834.125 810.378906 823.6875 818.789062 816.449219 823.371094 C 811.125 826.777344 806.4375 827.628906 806.4375 825.285156 C 806.4375 821.347656 819.535156 797.703125 834.765625 774.382812 C 855.105469 743.074219 861.8125 734.875 887.265625 709.527344 C 943.386719 653.9375 982.578125 609 995.355469 585.890625 C 1000.148438 577.050781 1000.363281 572.578125 996.101562 568 C 991.523438 563.097656 987.261719 563.417969 979.382812 569.277344 Z M 762.242188 732.425781 C 769.058594 737.535156 769.058594 738.8125 762.5625 745.417969 C 754.574219 753.617188 729.015625 776.9375 716.984375 786.949219 C 696.855469 803.882812 677.792969 817.085938 673.535156 817.085938 C 671.085938 817.085938 671.085938 812.613281 673.746094 806.96875 C 684.503906 783.328125 727.207031 738.28125 746.269531 730.507812 C 751.804688 728.164062 757.664062 728.910156 762.242188 732.425781 Z M 762.242188 732.425781 " fill-opacity="1" fill-rule="nonzero"/><path fill="#fffef9" d="M 123.496094 580.136719 C 113.058594 582.054688 104.324219 583.867188 104.113281 584.078125 C 103.578125 584.609375 135.421875 607.71875 137.230469 608.144531 C 138.191406 608.359375 140.425781 603.886719 139.46875 603.566406 C 139.363281 603.566406 137.550781 602.183594 135.421875 600.691406 L 131.585938 597.816406 L 133.183594 590.789062 C 134.78125 584.078125 134.996094 583.867188 138.296875 583.867188 C 142.238281 583.867188 145.113281 581.523438 145.113281 578.433594 C 145.113281 575.984375 146.496094 575.878906 123.496094 580.136719 Z M 128.394531 588.339844 C 127.222656 594.621094 126.796875 594.726562 121.363281 590.894531 L 116.253906 587.273438 L 121.898438 586.207031 C 124.984375 585.675781 127.859375 585.144531 128.285156 585.039062 C 128.710938 585.039062 128.820312 586.527344 128.394531 588.339844 Z M 128.394531 588.339844 " fill-opacity="1" fill-rule="nonzero"/><path fill="#fffef9" d="M 96.125 628.699219 C 96.125 629.550781 95.378906 635.195312 94.527344 641.265625 C 93.25 650.210938 93.25 652.554688 94.207031 653.300781 C 96.871094 655.003906 98.789062 653.617188 99.105469 649.890625 C 99.320312 647.867188 99.851562 645.84375 100.277344 645.417969 C 100.703125 644.886719 107.734375 645.527344 115.828125 646.695312 C 124.027344 647.867188 131.054688 648.828125 131.585938 648.828125 C 132.015625 648.828125 132.332031 647.335938 132.332031 645.632812 C 132.332031 643.820312 131.90625 642.4375 131.375 642.4375 C 129.882812 642.4375 105.496094 639.242188 102.941406 638.710938 C 100.917969 638.285156 100.8125 637.75 101.449219 633.386719 C 101.984375 629.871094 101.875 628.59375 100.8125 628.59375 C 100.066406 628.59375 98.789062 628.273438 97.828125 627.953125 C 96.765625 627.527344 96.125 627.847656 96.125 628.699219 Z M 96.125 628.699219 " fill-opacity="1" fill-rule="nonzero"/><path fill="#fffef9" d="M 89.734375 687.695312 C 89.734375 690.144531 90.160156 690.359375 94.316406 690.359375 C 98.46875 690.464844 114.65625 691.53125 114.867188 691.851562 C 114.867188 691.851562 108.90625 697.707031 101.449219 704.734375 L 87.925781 717.515625 L 97.617188 718.152344 C 102.941406 718.582031 111.78125 718.898438 117.210938 719.007812 L 127.007812 719.113281 L 127.007812 712.722656 L 114.546875 712.722656 L 101.984375 712.617188 L 115.507812 699.519531 L 129.136719 686.417969 L 124.238281 685.671875 C 121.472656 685.355469 112.632812 685.035156 104.539062 685.035156 L 89.734375 685.035156 Z M 89.734375 687.695312 " fill-opacity="1" fill-rule="nonzero"/><path fill="#fffef9" d="M 1239.441406 705.480469 C 1225.382812 712.828125 1183.957031 761.496094 1155.628906 803.773438 C 1138.058594 829.972656 1135.820312 836.148438 1140.828125 844.347656 C 1146.152344 852.867188 1154.457031 853.1875 1166.066406 845.519531 C 1184.808594 833.0625 1226.234375 787.054688 1244.019531 759.046875 L 1247.214844 753.9375 L 1260.3125 753.722656 C 1275.542969 753.511719 1284.378906 751.59375 1296.839844 745.734375 C 1305.253906 741.796875 1315.582031 733.914062 1314.199219 732.425781 C 1313.773438 732 1308.980469 732.851562 1303.550781 734.449219 C 1283.527344 740.09375 1264.464844 742.753906 1255.519531 741.050781 C 1251.792969 740.410156 1251.582031 740.09375 1251.582031 736.363281 C 1251.582031 730.71875 1249.558594 724.332031 1247 721.457031 C 1244.339844 718.582031 1245.085938 717.726562 1252.433594 715.703125 C 1258.078125 714.105469 1258.289062 711.765625 1253.285156 706.757812 C 1249.023438 702.5 1245.617188 702.179688 1239.441406 705.480469 Z M 1232.410156 745.097656 C 1232.410156 751.699219 1218.675781 771.71875 1198.226562 795.042969 C 1187.257812 807.503906 1170.964844 822.945312 1165.960938 825.5 C 1161.167969 828.160156 1160.207031 825.710938 1163.617188 818.789062 C 1168.621094 808.566406 1200.996094 765.96875 1221.015625 743.285156 L 1227.40625 736.046875 L 1229.855469 739.027344 C 1231.238281 740.625 1232.304688 743.394531 1232.410156 745.097656 Z M 1232.410156 745.097656 " fill-opacity="1" fill-rule="nonzero"/><path fill="#fffef9" d="M 122.535156 757.984375 L 123.066406 768.101562 L 118.277344 768.101562 C 112.738281 768.101562 112.097656 767.140625 112.097656 757.664062 C 112.097656 752.230469 111.992188 752.125 108.90625 752.125 L 105.816406 752.125 L 106.457031 760.644531 L 107.09375 769.164062 L 102.300781 769.164062 C 96.445312 769.164062 96.125 768.527344 96.125 758.410156 L 96.125 751.0625 L 89.417969 751.0625 L 90.160156 756.597656 C 90.480469 759.6875 90.800781 764.90625 90.800781 768.101562 C 90.800781 771.292969 91.226562 774.488281 91.652344 775.128906 C 92.398438 776.300781 127.328125 774.488281 128.710938 773.105469 C 129.136719 772.785156 129.03125 766.929688 128.605469 760.113281 L 127.859375 747.867188 L 122.003906 747.867188 Z M 122.535156 757.984375 " fill-opacity="1" fill-rule="nonzero"/><path fill="#fffef9" d="M 112.3125 807.394531 C 103.472656 808.992188 95.914062 810.589844 95.59375 810.804688 C 95.378906 811.121094 101.34375 814.425781 108.90625 818.152344 C 116.570312 821.878906 122.75 825.285156 122.75 825.605469 C 122.75 825.820312 117.851562 831.039062 111.886719 837 C 105.816406 843.070312 101.664062 847.96875 102.515625 847.96875 C 103.367188 847.96875 111.886719 846.691406 121.472656 845.199219 L 138.722656 842.324219 L 138.722656 839.238281 C 138.722656 836.363281 138.402344 836.148438 135.847656 836.679688 C 127.753906 838.277344 119.339844 839.558594 118.914062 839.238281 C 118.703125 839.023438 121.683594 835.722656 125.410156 831.996094 C 129.246094 828.160156 132.332031 824.753906 132.332031 824.328125 C 132.332031 823.902344 127.859375 821.238281 122.535156 818.472656 L 112.632812 813.464844 L 122.75 811.867188 C 132.546875 810.164062 132.867188 810.058594 133.183594 807.183594 C 133.609375 803.5625 133.824219 803.5625 112.3125 807.394531 Z M 112.3125 807.394531 " fill-opacity="1" fill-rule="nonzero"/><path fill="#fffef9" d="M 621.136719 982.683594 L 621.136719 1000.253906 L 627.527344 1000.253906 L 627.527344 990.136719 C 627.527344 984.601562 627.847656 980.023438 628.167969 980.023438 C 628.59375 980.023438 634.023438 984.921875 640.414062 990.777344 L 652.023438 1001.535156 L 652.023438 966.175781 L 645.632812 966.175781 L 645.632812 986.625 L 634.023438 975.867188 C 627.632812 970.011719 622.203125 965.113281 621.777344 965.113281 C 621.457031 965.113281 621.136719 972.992188 621.136719 982.683594 Z M 621.136719 982.683594 " fill-opacity="1" fill-rule="nonzero"/><path fill="#fffef9" d="M 690.574219 966.175781 C 683.542969 967.773438 678.644531 974.695312 678.644531 982.898438 C 678.644531 995.78125 689.507812 1003.34375 701.96875 999.085938 C 705.480469 997.804688 705.90625 996.953125 704.203125 993.757812 C 703.246094 992.160156 702.605469 991.949219 701.007812 992.800781 C 697.175781 994.824219 690.890625 994.078125 688.335938 991.308594 C 684.714844 987.476562 684.183594 980.339844 687.164062 976.507812 C 690.574219 972.246094 693.765625 971.183594 698.878906 972.992188 C 703.03125 974.378906 703.03125 974.378906 704.097656 971.394531 C 704.949219 968.839844 704.84375 968.199219 703.351562 967.347656 C 700.476562 965.964844 694.40625 965.324219 690.574219 966.175781 Z M 690.574219 966.175781 " fill-opacity="1" fill-rule="nonzero"/><path fill="#fffef9" d="M 542.972656 968.945312 C 539.03125 972.992188 539.136719 978.957031 543.183594 982.152344 C 544.78125 983.429688 547.550781 985.132812 549.46875 985.878906 C 554.152344 987.902344 555.644531 990.882812 552.984375 993.332031 C 550.960938 995.144531 549.363281 995.144531 542.652344 993.226562 C 541.054688 992.800781 540.097656 993.226562 539.136719 994.824219 C 538.074219 996.953125 538.394531 997.273438 542.015625 998.765625 C 546.914062 1000.894531 555.324219 1000.253906 558.308594 997.59375 C 559.371094 996.632812 560.648438 994.398438 560.96875 992.589844 C 562.140625 987.476562 559.90625 983.960938 553.410156 980.765625 C 550.214844 979.167969 547.339844 977.144531 547.019531 976.292969 C 545.527344 972.355469 551.597656 970.117188 556.390625 972.671875 C 558.308594 973.632812 558.945312 973.527344 560.117188 971.929688 C 560.863281 970.863281 561.503906 969.691406 561.503906 969.371094 C 561.503906 967.882812 555.859375 966.175781 550.960938 966.175781 C 546.804688 966.175781 545.316406 966.710938 542.972656 968.945312 Z M 542.972656 968.945312 " fill-opacity="1" fill-rule="nonzero"/><path fill="#fffef9" d="M 587.0625 983.214844 L 587.0625 1000.253906 L 593.449219 1000.253906 L 593.449219 966.175781 L 587.0625 966.175781 Z M 587.0625 983.214844 " fill-opacity="1" fill-rule="nonzero"/><path fill="#fffef9" d="M 731.890625 983.214844 L 731.890625 1000.253906 L 755.320312 1000.253906 L 755.320312 993.867188 L 738.28125 993.867188 L 738.28125 986.410156 L 753.191406 986.410156 L 753.191406 980.023438 L 738.28125 980.023438 L 738.28125 972.671875 L 746.589844 972.355469 C 754.679688 972.035156 754.789062 972.035156 755.109375 969.054688 L 755.425781 966.175781 L 731.890625 966.175781 Z M 731.890625 983.214844 " fill-opacity="1" fill-rule="nonzero"/><path fill="#fffef9" d="M 815.914062 972.460938 C 812.402344 975.976562 811.976562 979.597656 814.53125 984.496094 C 816.128906 987.476562 816.339844 987.582031 817.9375 985.984375 C 819.003906 984.921875 819.75 982.472656 819.75 980.234375 C 819.75 976.507812 819.855469 976.292969 823.371094 976.292969 C 831.355469 976.292969 830.078125 982.683594 819.960938 993.546875 L 813.574219 1000.363281 L 824.648438 1000.042969 C 835.722656 999.722656 835.722656 999.722656 835.722656 997.0625 C 835.722656 994.824219 835.191406 994.292969 832.316406 994.078125 C 828.800781 993.757812 827.84375 992.480469 829.867188 991.203125 C 831.675781 990.03125 835.191406 982.363281 835.191406 979.488281 C 835.191406 972.992188 831.355469 969.480469 824.222656 969.371094 C 819.855469 969.371094 818.578125 969.90625 815.914062 972.460938 Z M 815.914062 972.460938 " fill-opacity="1" fill-rule="nonzero"/><path fill="#fffef9" d="M 862.878906 972.355469 C 857.449219 977.785156 857.339844 990.246094 862.773438 996.207031 C 866.605469 1000.46875 872.996094 1001.425781 878.109375 998.230469 C 882.6875 995.464844 884.175781 992.054688 884.175781 984.707031 C 884.175781 974.378906 879.917969 969.371094 871.078125 969.371094 C 866.820312 969.371094 865.328125 969.90625 862.878906 972.355469 Z M 876.085938 978.105469 C 877.042969 979.382812 877.789062 982.472656 877.789062 984.8125 C 877.789062 992.480469 872.675781 996.316406 867.992188 992.054688 C 865.859375 990.136719 865.328125 981.300781 867.136719 977.785156 C 868.734375 974.910156 873.953125 975.125 876.085938 978.105469 Z M 876.085938 978.105469 " fill-opacity="1" fill-rule="nonzero"/><path fill="#fffef9" d="M 907.605469 972.566406 C 907.605469 974.269531 908.140625 975.761719 908.671875 975.761719 C 909.308594 975.761719 909.734375 980.554688 909.734375 988.007812 L 909.734375 1000.253906 L 917.191406 1000.253906 L 917.191406 969.371094 L 912.398438 969.371094 C 907.820312 969.371094 907.605469 969.480469 907.605469 972.566406 Z M 907.605469 972.566406 " fill-opacity="1" fill-rule="nonzero"/><path fill="#fffef9" d="M 941.683594 972.566406 C 941.683594 975.550781 941.898438 975.65625 947.433594 975.976562 L 953.078125 976.292969 L 948.605469 988.007812 L 944.027344 999.722656 L 947.222656 1000.042969 C 948.925781 1000.253906 950.628906 1000.148438 950.949219 999.9375 C 951.160156 999.617188 953.929688 992.695312 957.125 984.386719 L 962.769531 969.371094 L 941.683594 969.371094 Z M 941.683594 972.566406 " fill-opacity="1" fill-rule="nonzero"/></svg>